<?xml version="1.0" standalone="no"?>
<!DOCTYPE svg PUBLIC "-//W3C//DTD SVG 1.1//EN" "http://www.w3.org/Graphics/SVG/1.1/DTD/svg11.dtd" >
<svg xmlns="http://www.w3.org/2000/svg">
<metadata>
This is a custom SVG webfont generated by Font Squirrel.
Copyright   : Copyright 19901998 Bitstream Inc  All rights reserved
</metadata>
<defs>
<font id="NewsGothCnBTRegular" horiz-adv-x="870" >
<font-face units-per-em="2048" ascent="1556" descent="-492" />
<missing-glyph horiz-adv-x="434" />
<glyph unicode=" "  horiz-adv-x="434" />
<glyph unicode="&#x09;" horiz-adv-x="434" />
<glyph unicode="&#xa0;" horiz-adv-x="434" />
<glyph unicode="!" horiz-adv-x="524" d="M176 1483h170l-33 -1047h-102zM182 0v182h162v-182h-162z" />
<glyph unicode="&#x22;" horiz-adv-x="569" d="M98 881v553h101v-553h-101zM371 881v553h102v-553h-102z" />
<glyph unicode="#" horiz-adv-x="1575" d="M117 479l39 109h325l101 276h-353l35 107h354l173 483h127l-168 -483h264l172 483h127l-170 -483h315l-37 -107h-317l-98 -276h340l-37 -109h-340l-170 -479h-129l172 479h-269l-172 -479h-127l170 479h-327zM612 588h267l96 276h-266z" />
<glyph unicode="$" d="M82 401h123q5 -123 50.5 -192.5t129.5 -81.5v604q-140 98 -207 203t-67 225q0 130 74 212.5t200 92.5v201h102v-201q125 -15 195.5 -106t81.5 -250h-114q-5 105 -45 166.5t-118 81.5v-541q172 -128 241 -233t69 -232q0 -152 -81 -243.5t-229 -106.5v-231h-102v231 q-139 23 -216.5 125.5t-86.5 275.5zM223 1169q0 -84 38 -150.5t124 -129.5v467q-77 -6 -119.5 -55t-42.5 -132zM487 121q88 6 139.5 68t51.5 161q0 89 -45 161.5t-146 143.5v-534z" />
<glyph unicode="%" horiz-adv-x="1507" d="M86 1174q0 129 91 220t220 91t220.5 -91t91.5 -220q0 -130 -91.5 -221t-220.5 -91t-220 91t-91 221zM199 1171q0 -82 57.5 -140t140.5 -58t141 58t58 140q0 84 -58 142.5t-141 58.5q-82 0 -140 -58.5t-58 -142.5zM233 -29l897 1514h113l-897 -1514h-113zM797 287 q0 129 91 220t220 91t220 -91t91 -220t-91 -220.5t-220 -91.5t-220 91.5t-91 220.5zM909 287q0 -83 58 -141t141 -58t141 58t58 141t-58 140.5t-141 57.5t-141 -57.5t-58 -140.5z" />
<glyph unicode="&#x26;" horiz-adv-x="1036" d="M72 344q0 111 53 217.5t182 247.5q-49 113 -73.5 211.5t-24.5 185.5q0 141 68 220t188 79q113 0 185.5 -76.5t72.5 -197.5q0 -101 -56.5 -202t-187.5 -232q45 -106 107.5 -208.5t142.5 -201.5q31 66 47.5 144.5t20.5 178.5l137 -6q-3 -125 -29.5 -232t-77.5 -196 q36 -41 80 -82.5t97 -82.5l-80 -117q-51 34 -94.5 72.5t-79.5 80.5q-71 -91 -152.5 -133.5t-183.5 -42.5q-150 0 -246 104.5t-96 268.5zM213 354q0 -107 61 -174t158 -67q62 0 115 29.5t104 93.5q-77 94 -146.5 203.5t-133.5 236.5q-79 -69 -118.5 -150t-39.5 -172z M342 1221q0 -68 20 -143.5t60 -157.5q82 78 121 154t39 157q0 75 -32 117.5t-87 42.5q-57 0 -89 -45.5t-32 -124.5z" />
<glyph unicode="'" horiz-adv-x="295" d="M98 881v553h101v-553h-101z" />
<glyph unicode="(" horiz-adv-x="563" d="M135 674q0 221 61.5 426t188.5 409h139q-133 -210 -195.5 -412t-62.5 -423t62.5 -423t195.5 -413h-139q-127 205 -188.5 410t-61.5 426z" />
<glyph unicode=")" horiz-adv-x="563" d="M39 -162q133 211 195.5 413t62.5 423t-62.5 423t-195.5 412h139q127 -204 188.5 -409t61.5 -426t-61.5 -426t-188.5 -410h-139z" />
<glyph unicode="*" horiz-adv-x="1024" d="M109 1128l47 150l315 -143l-29 346h140l-29 -346l315 143l47 -150l-337 -71l235 -256l-129 -96l-172 305l-172 -305l-129 96l235 256z" />
<glyph unicode="+" horiz-adv-x="1706" d="M254 561v98h551v562h98v-562h549v-98h-549v-561h-98v561h-551z" />
<glyph unicode="," horiz-adv-x="436" d="M127 -293l90 293h-72v186h162v-194l-121 -285h-59z" />
<glyph unicode="-" horiz-adv-x="674" d="M92 467v127h490v-127h-490z" />
<glyph unicode="." horiz-adv-x="436" d="M137 0v182h162v-182h-162z" />
<glyph unicode="/" horiz-adv-x="569" d="M-49 -190l553 1699h114l-555 -1699h-112z" />
<glyph unicode="0" d="M84 735q0 422 80.5 592t269.5 170q191 0 271.5 -170t80.5 -592q0 -421 -80.5 -590.5t-271.5 -169.5q-190 0 -270 170t-80 590zM227 735q0 -369 46 -501t161 -132t160 130.5t45 502.5t-45 502.5t-160 130.5t-161 -132t-46 -501z" />
<glyph unicode="1" d="M207 0v123h176v1175l-176 -12v84q73 24 131 52.5t104 62.5h82v-1362h168v-123h-485z" />
<glyph unicode="2" d="M90 0v127q33 101 96.5 213t212.5 319q9 12 25 35q207 282 207 447q0 104 -51.5 165.5t-139.5 61.5q-97 0 -148.5 -77t-56.5 -228h-128q4 216 89 322t255 106q147 0 233 -93t86 -253q0 -189 -255 -538q-21 -29 -32 -44q-124 -170 -179.5 -261.5t-82.5 -164.5h545v-137 h-676z" />
<glyph unicode="3" d="M76 332v18h127q0 -123 47 -183.5t143 -60.5q99 0 153 83t54 235q0 155 -76.5 227t-240.5 72h-15v117h21q146 0 218.5 67.5t72.5 202.5q0 119 -47.5 187.5t-126.5 68.5q-75 0 -119 -50t-58 -149h-124q9 153 88 237.5t210 84.5q144 0 230 -104.5t86 -278.5 q0 -118 -44 -196.5t-136 -123.5q106 -39 158.5 -129t52.5 -233q0 -205 -95 -324.5t-256 -119.5q-157 0 -240 90t-83 262z" />
<glyph unicode="4" d="M55 332v74l396 1064h206v-1009h154v-129h-154v-357h-141v357h-461zM199 461h317l14 907h-8q-29 -99 -82 -249l-4 -11z" />
<glyph unicode="5" d="M113 322v18h126q2 -117 48 -179.5t131 -62.5q102 0 159.5 109.5t57.5 306.5q0 165 -52.5 252.5t-150.5 87.5q-60 0 -106.5 -36.5t-73.5 -106.5l-113 20l49 739h510l-14 -129h-383l-22 -434q31 34 70.5 50t94.5 16q161 0 246.5 -118.5t85.5 -340.5q0 -256 -98 -397.5 t-275 -141.5q-137 0 -213.5 91.5t-76.5 255.5z" />
<glyph unicode="6" d="M104 694q0 395 94 598t275 203q120 0 196.5 -80.5t77.5 -210.5h-130q-10 88 -46 131t-100 43q-108 0 -165 -153.5t-60 -453.5q47 61 108 94.5t125 33.5q139 0 222 -122.5t83 -332.5q0 -216 -92.5 -342.5t-249.5 -126.5q-177 0 -257.5 170t-80.5 549zM248 528 q0 -206 53 -314t154 -108q90 0 139 89t49 254q0 161 -48 246t-140 85q-55 0 -107.5 -36.5t-95.5 -104.5v-6q-4 -71 -4 -105z" />
<glyph unicode="7" d="M111 1343v127h639v-92l-422 -1403h-148l420 1368h-489z" />
<glyph unicode="8" d="M72 373q0 113 57 211t180 194q-98 77 -146 168.5t-48 202.5q0 155 89 249.5t236 94.5t237.5 -90t90.5 -236q0 -108 -53.5 -203.5t-161.5 -177.5q121 -79 182.5 -184.5t61.5 -234.5q0 -169 -104.5 -280.5t-262.5 -111.5q-161 0 -259.5 109t-98.5 289zM217 369 q0 -116 61.5 -190.5t155.5 -74.5q95 0 155 73t60 190q0 104 -51.5 186.5t-163.5 157.5q-111 -75 -164 -159t-53 -183zM250 1155q0 -85 45.5 -159t140.5 -144q100 73 146.5 148.5t46.5 164.5q0 91 -54 149t-139 58q-84 0 -135 -59t-51 -158z" />
<glyph unicode="9" d="M82 1026q0 217 91.5 343t248.5 126q178 0 259 -170t81 -549q0 -393 -94.5 -597t-276.5 -204q-119 0 -194.5 80t-77.5 211h129q9 -87 46 -130.5t101 -43.5q109 0 165.5 154t59.5 454q-46 -61 -108 -95t-127 -34q-138 0 -220.5 122.5t-82.5 332.5zM221 1022 q0 -162 48.5 -247t140.5 -85q54 0 108 37t96 104l1 7q3 71 3 104q0 206 -52.5 314t-153.5 108q-92 0 -141.5 -88.5t-49.5 -253.5z" />
<glyph unicode=":" horiz-adv-x="483" d="M162 0v182h162v-182h-162zM162 559v182h162v-182h-162z" />
<glyph unicode=";" horiz-adv-x="483" d="M141 -293l88 293h-69v186h162v-194l-121 -285h-60zM160 559v182h162v-182h-162z" />
<glyph unicode="&#x3c;" horiz-adv-x="1706" d="M264 569v82l1178 484v-109l-1022 -416l1022 -413v-109z" />
<glyph unicode="=" horiz-adv-x="1706" d="M254 375v98h1198v-98h-1198zM254 748v98h1198v-98h-1198z" />
<glyph unicode="&#x3e;" horiz-adv-x="1706" d="M264 88v109l1022 413l-1022 416v109l1178 -484v-82z" />
<glyph unicode="?" horiz-adv-x="702" d="M74 1225q7 134 79 209t193 75q122 0 192 -73t70 -201q0 -137 -132 -349q-37 -59 -54 -89q-48 -84 -69 -158.5t-21 -157.5q0 -6 1 -19.5t1 -21.5h-107v21v37q0 89 20.5 170t71.5 184q17 33 52 95q102 180 102 284q0 77 -36.5 121.5t-98.5 44.5q-64 0 -102.5 -48.5 t-38.5 -129.5v-7zM199 0v182h161v-182h-161z" />
<glyph unicode="@" horiz-adv-x="2048" d="M117 537q0 204 86 381.5t252 314.5q132 109 298.5 165t360.5 56q162 0 308 -44t249 -124q129 -99 194.5 -228t65.5 -280q0 -171 -62 -309.5t-181 -232.5q-70 -54 -149 -82.5t-161 -28.5q-97 0 -144.5 37.5t-47.5 113.5q0 4 1 14t1 15q-51 -87 -127 -133.5t-168 -46.5 q-153 0 -233 83.5t-80 244.5q0 230 135 388t329 158q94 0 158 -41t96 -122l60 125h94l-139 -562q-10 -44 -13.5 -62.5t-3.5 -29.5q0 -43 28.5 -67.5t78.5 -24.5q52 0 106.5 21t104.5 61q97 77 151 204.5t54 282.5q0 254 -198 417t-509 163q-175 0 -320 -49.5t-262 -149.5 q-147 -126 -222 -290.5t-75 -362.5q0 -174 60 -305t184 -232q102 -82 244 -128t301 -46q171 0 334.5 49.5t300.5 143.5l39 -55q-147 -111 -311 -166.5t-343 -55.5q-191 0 -347 46.5t-275 138.5q-155 118 -229 273.5t-74 361.5zM702 444q0 -111 55 -173t152 -62 q107 0 189.5 71.5t111.5 188.5l62 248q-18 93 -75.5 145.5t-139.5 52.5q-154 0 -254.5 -133.5t-100.5 -337.5z" />
<glyph unicode="A" horiz-adv-x="901" d="M27 0l321 1481h209l324 -1481h-160l-86 436h-373l-86 -436h-149zM295 575h309l-155 775z" />
<glyph unicode="B" horiz-adv-x="973" d="M133 0v1481h270q163 0 237 -24.5t132 -84.5q42 -42 65 -108t23 -146q0 -126 -52.5 -209.5t-158.5 -126.5q124 -44 184 -135t60 -233q0 -210 -116 -312t-353 -102h-291zM285 135h153q159 0 232 68t73 215q0 149 -77 220t-240 71h-141v-574zM285 838h141q143 0 216 68 t73 202q0 131 -69.5 186.5t-239.5 55.5h-121v-512z" />
<glyph unicode="C" horiz-adv-x="950" d="M84 721q0 405 103.5 597.5t320.5 192.5q170 0 268 -123.5t98 -340.5h-147q-8 162 -64.5 246.5t-156.5 84.5q-140 0 -202 -150.5t-62 -492.5q0 -335 68 -482t220 -147q104 0 163 92.5t59 256.5v30h137v-32q0 -231 -101 -356.5t-286 -125.5q-208 0 -313 188.5t-105 561.5z " />
<glyph unicode="D" horiz-adv-x="993" d="M141 0v1481h275q258 0 374.5 -175t116.5 -563q0 -392 -116.5 -567.5t-374.5 -175.5h-275zM295 140q35 -3 52 -4t30 -1q210 0 294.5 133.5t84.5 479.5q0 341 -84 473.5t-293 132.5q-14 0 -31.5 -1t-52.5 -4v-1209z" />
<glyph unicode="E" horiz-adv-x="854" d="M133 0v1481h666v-138h-514v-509h377v-136h-377v-561h532v-137h-684z" />
<glyph unicode="F" horiz-adv-x="799" d="M133 0v1481h621v-138h-469v-509h360v-136h-360v-698h-152z" />
<glyph unicode="G" horiz-adv-x="981" d="M84 721q0 405 103.5 597.5t320.5 192.5q170 0 268 -123.5t98 -340.5h-147q-8 162 -64.5 246.5t-156.5 84.5q-140 0 -201 -149.5t-61 -503.5q0 -324 67 -471.5t213 -147.5q102 0 160.5 75t58.5 206v174h-215v133h359v-694h-107l-16 86q-50 -59 -112.5 -87t-145.5 -28 q-211 0 -316.5 187.5t-105.5 562.5z" />
<glyph unicode="H" horiz-adv-x="999" d="M133 0v1481h152v-635h430v635h151v-1481h-151v705h-430v-705h-152z" />
<glyph unicode="I" horiz-adv-x="428" d="M137 0v1481h152v-1481h-152z" />
<glyph unicode="J" horiz-adv-x="551" d="M-12 -18l6 141q33 -11 64 -16t63 -5q85 0 118 53.5t33 260.5v1065h150v-987v-103q0 -126 -10 -186.5t-33 -102.5q-38 -66 -106 -99.5t-167 -33.5q-28 0 -58 3.5t-60 9.5z" />
<glyph unicode="K" horiz-adv-x="909" d="M131 0v1481h154v-791l438 791h151l-294 -523l342 -958h-164l-277 801l-198 -357v-444h-152z" />
<glyph unicode="L" horiz-adv-x="782" d="M141 0v1481h154v-1340h465v-141h-619z" />
<glyph unicode="M" horiz-adv-x="1262" d="M131 0v1481h236l178 -770q26 -112 46 -224t36 -227q14 105 35 217t49 232l180 772h237v-1481h-135v1376l-319 -1376h-94l-316 1376v-1376h-133z" />
<glyph unicode="N" horiz-adv-x="1038" d="M135 0v1481h221l306 -840q35 -100 65 -191.5t55 -177.5q-6 66 -9 136t-3 188v885h133v-1481h-149l-373 1024q-31 83 -59 168.5t-54 173.5v-1366h-133z" />
<glyph unicode="O" horiz-adv-x="985" d="M84 741q0 380 103 574t305 194q201 0 305 -194.5t104 -573.5t-104 -574.5t-305 -195.5q-202 0 -305 195.5t-103 574.5zM244 776q0 -353 58.5 -509t189.5 -156q128 0 187.5 150t59.5 480q0 328 -59.5 479.5t-187.5 151.5t-188 -144t-60 -452z" />
<glyph unicode="P" horiz-adv-x="909" d="M133 0v1481h248q240 0 358.5 -100t118.5 -302t-118.5 -301.5t-358.5 -99.5h-96v-678h-152zM285 803h129q149 0 225 67.5t76 200.5q0 137 -75.5 204.5t-225.5 67.5h-129v-540z" />
<glyph unicode="Q" horiz-adv-x="985" d="M84 741q0 380 103 574t305 194t305.5 -194t103.5 -574q0 -215 -29 -355t-94 -253q34 -59 74 -88.5t88 -32.5v-131q-87 14 -146 54t-94 108q-48 -36 -99.5 -54t-108.5 -18q-202 0 -305 195.5t-103 574.5zM244 741q0 -326 59.5 -478t188.5 -152q37 0 72 17t67 50 q-30 42 -59 65.5t-60 31.5l20 120q39 -4 75.5 -29t80.5 -77q27 65 39 163.5t12 247.5q0 359 -58.5 515.5t-188.5 156.5q-132 0 -190 -147.5t-58 -483.5z" />
<glyph unicode="R" horiz-adv-x="958" d="M133 0v1481h270q241 0 359.5 -96.5t118.5 -292.5q0 -136 -60 -227t-174 -128l242 -737h-164l-223 704q-61 -2 -95 -3t-63 -1h-59v-700h-152zM285 834h129q152 0 228.5 64.5t76.5 193.5q0 130 -75.5 194t-229.5 64h-129v-516z" />
<glyph unicode="S" horiz-adv-x="891" d="M74 393h143q8 -145 65.5 -214.5t170.5 -69.5q97 0 157 67t60 178q0 97 -56 177.5t-231 209.5q-175 130 -231 221t-56 214q0 142 93.5 237.5t234.5 95.5q166 0 261 -105.5t101 -295.5h-140q-10 136 -64 205t-152 69q-91 0 -145 -56t-54 -150q0 -48 19 -93.5t53 -81.5 q50 -52 150.5 -127t126.5 -96q125 -101 179 -198t54 -220q0 -176 -100 -282.5t-264 -106.5q-176 0 -274 110t-101 312z" />
<glyph unicode="T" horiz-adv-x="782" d="M18 1354v127h744v-127h-297v-1354h-150v1354h-297z" />
<glyph unicode="U" horiz-adv-x="1004" d="M129 518v963h152v-949q0 -268 47.5 -347t173.5 -79q123 0 171 80.5t48 345.5v949h151v-963q0 -195 -17.5 -281t-59.5 -141q-48 -60 -124 -92.5t-169 -32.5q-95 0 -171.5 32.5t-123.5 92.5q-43 53 -60.5 136.5t-17.5 285.5z" />
<glyph unicode="V" horiz-adv-x="840" d="M10 1481h152l221 -1010q11 -46 31 -191q4 -27 6 -40q12 72 23 128.5t22 108.5l219 1004h145l-337 -1481h-144z" />
<glyph unicode="W" horiz-adv-x="1268" d="M39 1481h139l135 -881q17 -111 25 -192.5t10 -153.5q6 85 18 172.5t29 177.5l178 877h121l178 -877q18 -90 30 -177.5t18 -172.5q2 76 9.5 154.5t24.5 191.5l136 881h139l-234 -1481h-135l-203 1063q-9 45 -15 95t-9 105q-8 -79 -15.5 -139t-15.5 -100l-194 -1024h-136z " />
<glyph unicode="X" horiz-adv-x="782" d="M-23 0l318 784l-301 697h162l219 -541l217 541h156l-285 -695l344 -786h-170l-256 629l-248 -629h-156z" />
<glyph unicode="Y" horiz-adv-x="772" d="M-23 1481h158l254 -674l248 674h156l-328 -844v-637h-156v637z" />
<glyph unicode="Z" horiz-adv-x="756" d="M29 0v115l536 1247h-481v119h649v-103l-540 -1243h540v-135h-704z" />
<glyph unicode="[" horiz-adv-x="551" d="M160 -162v1643h362v-78h-231v-1487h231v-78h-362z" />
<glyph unicode="\" horiz-adv-x="569" d="M-51 1509h114l555 -1699h-112z" />
<glyph unicode="]" horiz-adv-x="551" d="M31 -84h229v1487h-229v78h360v-1643h-360v78z" />
<glyph unicode="^" horiz-adv-x="2048" d="M422 901l532 557h140l530 -557h-143l-457 455l-459 -455h-143z" />
<glyph unicode="_" horiz-adv-x="1024" d="M0 -383h1024v-100h-1024v100z" />
<glyph unicode="`" horiz-adv-x="1024" d="M262 1548h178l209 -350h-106z" />
<glyph unicode="a" horiz-adv-x="840" d="M72 258q0 156 128.5 271.5t372.5 177.5v24v43q0 101 -37 145t-122 44q-73 0 -113 -46.5t-59 -154.5l-138 22q25 147 103.5 224t204.5 77q160 0 232.5 -83t72.5 -271v-485q0 -64 4.5 -125t13.5 -121h-145l-17 96q-52 -52 -114 -79t-129 -27q-120 0 -189 72t-69 196z M213 256q0 -62 40 -102.5t101 -40.5q49 0 105.5 29.5t113.5 84.5v344q-171 -38 -265.5 -121t-94.5 -194z" />
<glyph unicode="b" horiz-adv-x="840" d="M123 0v1481h141v-514q51 61 102.5 90.5t106.5 29.5q139 0 214 -143t75 -412q0 -270 -75 -413.5t-216 -143.5q-54 0 -106 31t-101 92v-98h-141zM264 240q41 -67 86.5 -101.5t93.5 -34.5q90 0 130 103.5t40 337.5q0 221 -40.5 322.5t-129.5 101.5q-47 0 -92 -33.5 t-88 -101.5v-594z" />
<glyph unicode="c" horiz-adv-x="764" d="M76 530q0 286 79 421.5t244 135.5q127 0 205 -88.5t84 -240.5h-131q-5 104 -45 155.5t-115 51.5q-94 0 -136 -101t-42 -334q0 -235 41.5 -332.5t138.5 -97.5q76 0 118 63.5t47 184.5h130q-1 -172 -81 -273.5t-214 -101.5q-165 0 -244 136t-79 421z" />
<glyph unicode="d" horiz-adv-x="840" d="M76 532q0 269 74 412t212 143q56 0 108.5 -30t102.5 -90v514h142v-1481h-142v98q-48 -60 -101 -91.5t-107 -31.5q-141 0 -215 143t-74 414zM223 545q0 -234 40.5 -337.5t129.5 -103.5q48 0 93.5 34.5t86.5 101.5v594q-43 68 -87.5 101.5t-92.5 33.5q-88 0 -129 -101.5 t-41 -322.5z" />
<glyph unicode="e" horiz-adv-x="780" d="M76 530q0 286 79 421.5t244 135.5q153 0 230.5 -123t77.5 -368q0 -34 -0.5 -51t-2.5 -33h-484q1 -223 43 -317.5t136 -94.5q76 0 118 63.5t47 184.5h134q-9 -178 -88 -276.5t-211 -98.5q-165 0 -244 136t-79 421zM221 631h340v41q0 156 -38.5 224.5t-125.5 68.5 q-84 0 -127 -81t-49 -253z" />
<glyph unicode="f" horiz-adv-x="483" d="M-4 938v125h160v125q0 181 46 247t163 66q35 0 61 -2.5t49 -7.5v-115q-25 6 -39 8t-24 2q-67 0 -91 -32t-24 -148v-143h170v-125h-170v-938h-141v938h-160z" />
<glyph unicode="g" horiz-adv-x="760" d="M27 -106q0 59 36 109t115 99q-55 29 -80.5 61.5t-25.5 74.5q0 44 28 80.5t93 74.5q-47 48 -70 124.5t-23 184.5q0 187 69.5 283t203.5 96q69 0 120.5 -24t86.5 -72q38 49 80.5 72.5t93.5 23.5h6v-132q-11 2 -20.5 3.5t-20.5 1.5q-27 0 -52 -11.5t-51 -35.5 q16 -55 23.5 -112t7.5 -117q0 -171 -70 -262.5t-200 -91.5q-19 0 -41 2.5t-50 7.5q-33 -2 -57 -21t-24 -41t14 -40.5t37 -26.5q32 -11 120.5 -26.5t141.5 -31.5q129 -38 180.5 -92.5t51.5 -146.5q0 -116 -102 -187t-269 -71q-166 0 -259 64.5t-93 179.5zM166 -96 q0 -63 58.5 -100t160.5 -37q111 0 172 35t61 98q0 67 -70 104.5t-237 56.5q-77 -30 -111 -67t-34 -90zM227 702q0 -140 35 -200t115 -60q76 0 109.5 61t33.5 199q0 139 -34 201t-109 62q-80 0 -115 -60.5t-35 -202.5z" />
<glyph unicode="h" horiz-adv-x="846" d="M127 0v1481h141v-529q64 72 125 105t129 33q104 0 153.5 -67.5t49.5 -207.5v-815h-141v768q0 110 -27 153.5t-92 43.5q-52 0 -101 -35t-96 -105v-825h-141z" />
<glyph unicode="i" horiz-adv-x="389" d="M123 0v1063h143v-1063h-143zM123 1313v168h143v-168h-143z" />
<glyph unicode="j" horiz-adv-x="389" d="M-27 -231q2 -1 6 -1q30 -3 44 -4q58 0 79 33.5t21 159.5v1106h143v-1141q0 -157 -43.5 -217.5t-150.5 -60.5q-15 0 -40 2t-59 6v117zM123 1313v168h143v-168h-143z" />
<glyph unicode="k" horiz-adv-x="768" d="M123 0v1481h143v-928l279 510h143l-192 -348l243 -715h-151l-182 573l-140 -254v-319h-143z" />
<glyph unicode="l" horiz-adv-x="389" d="M123 0v1481h143v-1481h-143z" />
<glyph unicode="m" horiz-adv-x="1303" d="M127 0v1063h141v-111q64 72 124 105t128 33q69 0 117 -34.5t80 -107.5q73 76 133.5 109t126.5 33q104 0 154.5 -67.5t50.5 -207.5v-815h-144v768q0 112 -26 154.5t-90 42.5q-52 0 -101.5 -35t-95.5 -105v-825h-143v768q0 112 -26.5 154.5t-90.5 42.5q-52 0 -101 -35 t-96 -105v-825h-141z" />
<glyph unicode="n" horiz-adv-x="846" d="M127 0v1063h141v-111q64 72 124 105t128 33q104 0 154.5 -68t50.5 -207v-815h-141v768q0 112 -26.5 154.5t-92.5 42.5q-54 0 -105.5 -36.5t-91.5 -103.5v-825h-141z" />
<glyph unicode="o" horiz-adv-x="782" d="M72 530q0 286 79 421.5t244 135.5q159 0 237.5 -138t78.5 -419q0 -280 -78.5 -418.5t-237.5 -138.5q-165 0 -244 136t-79 421zM217 530q0 -234 41 -332t135 -98q89 0 129.5 102t40.5 328q0 227 -40.5 330t-129.5 103q-94 0 -135 -99t-41 -334z" />
<glyph unicode="p" horiz-adv-x="840" d="M127 -356v1419h96l47 -96q51 61 102.5 90.5t106.5 29.5q139 0 214 -143t75 -412q0 -270 -75 -413.5t-216 -143.5q-54 0 -106 31t-101 92v-454h-143zM270 240q44 -68 88.5 -102t92.5 -34q89 0 129.5 103.5t40.5 337.5q0 221 -41 322.5t-129 101.5q-48 0 -92.5 -33.5 t-88.5 -101.5v-594z" />
<glyph unicode="q" horiz-adv-x="840" d="M72 532q0 269 74 412t212 143q56 0 108.5 -30t102.5 -90l47 96h95v-1419h-142v454q-49 -61 -101 -92t-106 -31q-141 0 -215.5 143.5t-74.5 413.5zM219 545q0 -234 40.5 -337.5t129.5 -103.5q47 0 92 34t88 102v594q-43 68 -88 101.5t-92 33.5q-88 0 -129 -101.5 t-41 -322.5z" />
<glyph unicode="r" horiz-adv-x="539" d="M123 0v1063h143v-123q54 76 112 110.5t130 34.5q5 0 15.5 -1t15.5 -1v-137q-5 0 -15.5 1t-15.5 1q-79 0 -138 -40t-104 -126v-782h-143z" />
<glyph unicode="s" horiz-adv-x="770" d="M74 258l135 31q13 -92 63.5 -144.5t122.5 -52.5q69 0 112.5 45.5t43.5 118.5q0 110 -192 240l-3 2q-156 107 -204 173.5t-48 149.5q0 115 75.5 190.5t189.5 75.5q119 0 192.5 -62t106.5 -191l-121 -37q-22 86 -65 130t-107 44q-60 0 -97.5 -36.5t-37.5 -94.5 q0 -93 187 -218q80 -54 124 -87q71 -54 105 -120t34 -149q0 -133 -83 -212t-224 -79q-122 0 -205 76t-104 207z" />
<glyph unicode="t" horiz-adv-x="492" d="M12 940v123h142v354h139v-354h190v-123h-190v-682q0 -94 21 -126t75 -32q19 0 86 13l8 1v-118q-42 -11 -78 -17t-61 -6q-95 0 -142.5 52t-47.5 155v760h-142z" />
<glyph unicode="u" horiz-adv-x="846" d="M123 246v817h141v-768q0 -112 26.5 -154.5t92.5 -42.5q54 0 105 36.5t92 103.5v825h141v-1063h-141v111q-64 -72 -124 -105t-128 -33q-104 0 -154.5 67t-50.5 206z" />
<glyph unicode="v" horiz-adv-x="776" d="M33 1063h143l215 -911l221 911h133l-262 -1063h-190z" />
<glyph unicode="w" horiz-adv-x="1128" d="M41 1063h137l129 -698q5 -28 9.5 -67.5t9.5 -90.5q4 45 9.5 84t12.5 71l152 701h131l155 -700q5 -19 9.5 -57.5t9.5 -98.5q6 83 9 115.5t5 41.5l129 699h139l-217 -1063h-125l-167 788q-4 19 -6.5 49t-4.5 70q-4 -42 -9 -72.5t-9 -47.5l-170 -787h-125z" />
<glyph unicode="x" horiz-adv-x="662" d="M6 0l246 539l-240 524h148l159 -373l173 373h135l-232 -506l267 -557h-150l-182 408l-189 -408h-135z" />
<glyph unicode="y" horiz-adv-x="711" d="M18 1063h148l184 -801l180 801h142l-248 -1059q-47 -198 -128.5 -280t-225.5 -82q-19 0 -28.5 0.5t-16.5 1.5v131q6 -1 13.5 -1.5t22.5 -0.5q97 0 150.5 56.5t77.5 182.5z" />
<glyph unicode="z" horiz-adv-x="680" d="M49 0v109l424 833h-385v121h541v-100l-428 -844h428v-119h-580z" />
<glyph unicode="{" horiz-adv-x="1024" d="M174 477v109q9 0 23.5 -1t21.5 -1q138 0 195 63t57 217v242q0 223 70 297t266 74h47v-107h-37q-131 0 -177 -49.5t-46 -204.5v-242q0 -168 -43.5 -240t-153.5 -104q110 -31 153.5 -103t43.5 -241v-241q0 -155 45 -204.5t170 -49.5q7 0 22 1t23 1v-107h-47 q-197 0 -266.5 72.5t-69.5 296.5v244q0 154 -57 217t-195 63q-7 0 -21.5 -1t-23.5 -1z" />
<glyph unicode="|" horiz-adv-x="1024" d="M459 -483v2048h108v-2048h-108z" />
<glyph unicode="}" horiz-adv-x="1024" d="M172 -307h39q130 0 175.5 49t45.5 203v241q0 171 43 242t154 102q-111 32 -154 103t-43 241v242q0 157 -45 206.5t-170 49.5q-7 0 -22 -1t-23 -1v107h47q196 0 266 -74t70 -297v-242q0 -154 57 -217t195 -63q7 0 22 1t23 1v-109q-8 0 -23 1t-22 1q-138 0 -195 -63 t-57 -217v-244q0 -223 -69.5 -296t-266.5 -73h-47v107z" />
<glyph unicode="~" horiz-adv-x="1706" d="M178 471v113q106 73 202 109t185 36q104 0 272 -61q11 -4 18 -7q9 -3 31 -11q167 -60 257 -60q85 0 177 38t210 122v-113q-102 -72 -198 -107.5t-189 -35.5q-99 0 -260 57q-20 7 -29 10l-16 6q-176 64 -273 64q-83 0 -175 -38t-212 -122z" />
<glyph d="M-2 592l25 80h88v149h-101l25 80h80q13 322 93.5 459t252.5 137q154 0 234 -106.5t104 -346.5h-144q-14 173 -59.5 248.5t-134.5 75.5q-103 0 -150 -104t-55 -363h367l-25 -80h-344v-149h338l-25 -80l-311 -1q7 -272 53.5 -380.5t151.5 -108.5q91 0 137 79t61 304h146 q-21 -272 -102 -391t-242 -119q-175 0 -256 141.5t-92 475.5h-115z" />
<glyph unicode="&#x20ac;" d="M-2 592l25 80h88v149h-101l25 80h80q13 322 93.5 459t252.5 137q154 0 234 -106.5t104 -346.5h-144q-14 173 -59.5 248.5t-134.5 75.5q-103 0 -150 -104t-55 -363h367l-25 -80h-344v-149h338l-25 -80l-311 -1q7 -272 53.5 -380.5t151.5 -108.5q91 0 137 79t61 304h146 q-21 -272 -102 -391t-242 -119q-175 0 -256 141.5t-92 475.5h-115z" />
<glyph unicode="&#xa0;" />
<glyph unicode="&#xa1;" horiz-adv-x="524" d="M176 0l35 1047h100l35 -1047h-170zM180 1298v185h162v-185h-162z" />
<glyph unicode="&#xa2;" d="M125 555q0 270 83 401t253 131h12l41 259h90l-43 -269q79 -23 122.5 -103t49.5 -216h-114q-2 77 -21.5 126t-56.5 70l-135 -837q12 -3 25 -4.5t24 -1.5q74 0 114 65.5t44 194.5h118q-7 -182 -83 -276.5t-214 -94.5q-18 0 -27 0.5t-18 1.5l-49 -297h-90l51 330 q-92 51 -134 175t-42 345zM254 508q0 -124 17.5 -210t52.5 -136l131 817h-19q-100 0 -141 -102t-41 -369z" />
<glyph unicode="&#xa3;" d="M72 -16v147q90 49 130 134t40 235q0 40 -3.5 84.5t-9.5 91.5h-157v108h137q-7 38 -20 107q-35 189 -35 262q0 155 79 247.5t209 92.5q158 0 241 -107t83 -311l-131 1q-3 148 -49 221t-137 73q-76 0 -119 -51t-43 -141q0 -47 48 -320q9 -48 13 -73l207 -1v-108h-188 q5 -41 7.5 -82.5t2.5 -87.5q0 -65 -10.5 -127.5t-32.5 -124.5q43 -63 96 -97t107 -34q73 0 105.5 58.5t37.5 205.5h133v-8q0 -199 -66 -300.5t-196 -101.5q-69 0 -130 35t-140 123q-39 -57 -91.5 -95t-117.5 -56z" />
<glyph unicode="&#xa4;" d="M-2 592l25 80h88v149h-101l25 80h80q13 322 93.5 459t252.5 137q154 0 234 -106.5t104 -346.5h-144q-14 173 -59.5 248.5t-134.5 75.5q-103 0 -150 -104t-55 -363h367l-25 -80h-344v-149h338l-25 -80l-311 -1q7 -272 53.5 -380.5t151.5 -108.5q91 0 137 79t61 304h146 q-21 -272 -102 -391t-242 -119q-175 0 -256 141.5t-92 475.5h-115z" />
<glyph unicode="&#xa5;" horiz-adv-x="772" d="M-6 1470h141l254 -671l248 671h145l-209 -530h185v-80h-215l-60 -149h275v-80h-303v-631h-133v631h-304v80h271l-60 149h-211v80h181z" />
<glyph unicode="&#xa6;" horiz-adv-x="1024" d="M459 -350v758h108v-758h-108zM459 674v758h108v-758h-108z" />
<glyph unicode="&#xa7;" horiz-adv-x="1024" d="M139 809q0 105 60.5 163t169.5 58q-63 70 -92 128.5t-29 115.5q0 103 72 169t186 66q87 0 162.5 -45.5t122.5 -126.5l-101 -71q-39 61 -86.5 95t-91.5 34q-58 0 -95.5 -33t-37.5 -84q0 -41 35 -92.5t155 -171.5l10 -10q304 -300 304 -459q0 -90 -62.5 -146t-166.5 -59 q60 -69 90 -135.5t30 -132.5q0 -116 -74 -184t-200 -68q-91 0 -167 45.5t-132 134.5l102 74q45 -65 97.5 -99t105.5 -34q59 0 99 37t40 92q0 84 -168 262l-8 8q-27 29 -78 81q-252 260 -252 388zM268 827q0 -37 25.5 -82t95.5 -127q83 -93 143 -137.5t105 -44.5 q48 0 80.5 32t32.5 79q0 42 -30 92.5t-112 138.5q-79 88 -130.5 125t-92.5 37q-46 0 -81.5 -34t-35.5 -79z" />
<glyph unicode="&#xa8;" horiz-adv-x="1024" d="M272 1264v186h160v-186h-160zM592 1264v186h160v-186h-160z" />
<glyph unicode="&#xa9;" horiz-adv-x="1706" d="M121 723q0 145 56.5 279.5t162.5 242.5q101 103 232 157t280 54t283.5 -55.5t238.5 -159.5q102 -102 156.5 -235.5t54.5 -282.5q0 -150 -53.5 -281t-157.5 -233q-107 -106 -242 -162.5t-280 -56.5t-278 55.5t-238 161.5q-105 104 -160 237t-55 279zM201 723 q0 -129 49.5 -247t142.5 -212q94 -93 212 -142.5t247 -49.5q130 0 250.5 50t216.5 144q91 89 138.5 206t47.5 251q0 132 -48.5 251t-139.5 210q-94 94 -213 143t-252 49q-132 0 -249 -48t-208 -140q-94 -96 -144 -215.5t-50 -249.5zM469 727q0 203 107.5 326t283.5 123 q135 0 226.5 -72t103.5 -189h-117q-18 80 -75 124t-142 44q-122 0 -190 -95t-68 -267q0 -166 69 -260t189 -94q89 0 151 50.5t78 137.5h115q-11 -125 -108.5 -205t-241.5 -80q-177 0 -279 122t-102 335z" />
<glyph unicode="&#xaa;" horiz-adv-x="631" d="M53 920q0 109 97 190t280 125v16v31q0 70 -28 100.5t-91 30.5q-55 0 -84.5 -32.5t-44.5 -108.5l-104 16q18 103 77.5 157t153.5 54q121 0 175.5 -58t54.5 -190v-340q0 -44 3 -87t9 -85h-109l-12 68q-38 -36 -84 -55t-98 -19q-90 0 -142.5 50t-52.5 137zM160 920 q0 -44 30 -72.5t76 -28.5q37 0 80 21t84 59v240q-129 -27 -199.5 -84.5t-70.5 -134.5z" />
<glyph unicode="&#xab;" horiz-adv-x="813" d="M74 530l241 312h123l-235 -312l237 -311h-125zM371 530l243 312h121l-235 -312l237 -311h-125z" />
<glyph unicode="&#xac;" horiz-adv-x="1706" d="M254 758v100h1198v-502h-96v402h-1102z" />
<glyph unicode="&#xad;" horiz-adv-x="674" d="M92 467v127h490v-127h-490z" />
<glyph unicode="&#xae;" horiz-adv-x="1706" d="M121 723q0 144 56.5 279.5t162.5 242.5q101 103 232 157t280 54q152 0 285.5 -55t236.5 -160q102 -102 156.5 -235.5t54.5 -282.5q0 -150 -53.5 -281t-157.5 -233q-107 -106 -242 -162.5t-280 -56.5q-147 0 -279.5 55.5t-236.5 161.5q-105 104 -160 237t-55 279zM201 723 q0 -129 49.5 -247t142.5 -212q94 -93 212 -142.5t247 -49.5q130 0 250.5 50t216.5 144q91 89 138.5 204.5t47.5 250.5q0 134 -48 253t-138 210q-94 93 -213.5 142.5t-253.5 49.5q-130 0 -246.5 -48t-208.5 -140q-95 -97 -145.5 -216.5t-50.5 -248.5zM565 313v844h309 q178 0 263.5 -57t85.5 -176q0 -89 -54 -149t-145 -73l188 -389h-145l-178 371h-197v-371h-127zM692 768h158q134 0 188 33.5t54 113.5q0 83 -57 119.5t-185 36.5h-158v-303z" />
<glyph unicode="&#xaf;" horiz-adv-x="1024" d="M254 1294v125h516v-125h-516z" />
<glyph unicode="&#xb0;" horiz-adv-x="674" d="M59 1174q0 116 81.5 197t197.5 81q115 0 195.5 -81.5t80.5 -196.5t-81.5 -197t-196.5 -82q-117 0 -197 81t-80 198zM129 1174q0 -87 61 -147t148 -60t147 60t60 147q0 86 -60.5 147t-146.5 61t-147.5 -61t-61.5 -147z" />
<glyph unicode="&#xb1;" horiz-adv-x="1706" d="M254 51v99h1198v-99h-1198zM254 723v98h551v348h98v-348h549v-98h-549v-348h-98v348h-551z" />
<glyph unicode="&#xb2;" horiz-adv-x="575" d="M59 588v76q21 59 61.5 124t143.5 195q6 8 18 23q134 169 134 266q0 63 -34 100t-91 37q-65 0 -98.5 -46t-37.5 -138h-85q3 130 59.5 194t167.5 64q98 0 154.5 -56t56.5 -153q0 -113 -168 -323l-21 -25q-76 -94 -115 -152t-59 -104h361v-82h-447z" />
<glyph unicode="&#xb3;" horiz-adv-x="575" d="M49 786v13h84q0 -75 31.5 -111.5t95.5 -36.5t99.5 50t35.5 141q0 94 -50 137t-159 43h-10v70h14q97 0 145 40t48 121q0 72 -31 113t-84 41q-49 0 -78 -29.5t-39 -89.5h-81q6 92 57.5 142.5t138.5 50.5q95 0 152 -62.5t57 -167.5q0 -70 -29 -117t-90 -75q70 -23 105 -77 t35 -140q0 -123 -63 -195t-169 -72q-104 0 -159.5 54.5t-55.5 156.5z" />
<glyph unicode="&#xb4;" horiz-adv-x="1024" d="M375 1198l209 350h178l-281 -350h-106z" />
<glyph unicode="&#xb5;" horiz-adv-x="1110" d="M-111 -426l316 1491h139l-125 -592q-8 -39 -12 -73t-4 -66q0 -117 58 -180.5t167 -63.5q125 0 215 107.5t133 310.5l121 557h139l-164 -770q-12 -55 -17 -85t-5 -48q0 -33 17 -49.5t51 -16.5q7 0 16.5 0.5t19.5 1.5l-20 -110q-19 -5 -41 -8t-45 -3q-70 0 -103.5 36 t-33.5 110v14q-42 -77 -120 -119.5t-179 -42.5q-92 0 -161 40t-108 116l-114 -557h-140z" />
<glyph unicode="&#xb6;" horiz-adv-x="1024" d="M84 1130q0 157 107.5 253t285.5 96h463v-70h-127v-1409h-82v1409h-186v-1409h-84v782q-174 8 -275.5 102.5t-101.5 245.5z" />
<glyph unicode="&#xb7;" horiz-adv-x="436" d="M113 735q0 43 30.5 74t73.5 31t75 -31t32 -74t-32 -74.5t-75 -31.5q-44 0 -74 30.5t-30 75.5z" />
<glyph unicode="&#xb8;" horiz-adv-x="1024" d="M262 -336q80 -18 141.5 -27.5t104.5 -9.5q60 0 90.5 21.5t30.5 62.5q0 52 -33 75.5t-104 23.5q-21 0 -31 -0.5t-21 -1.5v192h72v-106h23q111 0 168 -45t57 -132q0 -89 -62.5 -135.5t-183.5 -46.5q-48 0 -109.5 10t-142.5 31v88z" />
<glyph unicode="&#xb9;" horiz-adv-x="573" d="M137 588v74h117v704l-117 -6v49q47 14 85.5 31.5t70.5 38.5h53v-817h111v-74h-320z" />
<glyph unicode="&#xba;" horiz-adv-x="588" d="M53 1110q0 200 60 295.5t184 95.5q119 0 177 -96.5t58 -294.5q0 -197 -58 -293t-177 -96q-125 0 -184.5 95t-59.5 294zM164 1110q0 -165 30 -233t101 -68q66 0 96.5 71.5t30.5 229.5q0 160 -30.5 231.5t-96.5 71.5q-71 0 -101 -68.5t-30 -234.5z" />
<glyph unicode="&#xbb;" horiz-adv-x="813" d="M74 219l235 311l-235 312h123l243 -312l-241 -311h-125zM371 219l237 311l-235 312h123l241 -312l-241 -311h-125z" />
<glyph unicode="&#xbc;" horiz-adv-x="1438" d="M131 647v70h111v657l-111 -6v47q45 13 81.5 28.5t66.5 35.5h51v-762h106v-70h-305zM209 -29l903 1514h109l-904 -1514h-108zM926 186v41l250 596h129v-565h96v-72h-96v-200h-88v200h-291zM1016 258h201l8 508h-4q-17 -47 -30.5 -82.5t-25.5 -63.5z" />
<glyph unicode="&#xbd;" horiz-adv-x="1438" d="M131 647v70h111v657l-111 -6v47q45 13 81.5 28.5t66.5 35.5h51v-762h106v-70h-305zM209 -29l903 1514h109l-904 -1514h-108zM948 0v72q21 56 60.5 118.5t134.5 178.5q5 6 16 20q129 159 129 250q0 59 -32.5 93t-88.5 34q-60 0 -93 -43.5t-36 -126.5h-79q3 121 56.5 180.5 t160.5 59.5q92 0 146 -53t54 -142q0 -105 -160 -301l-20 -25q-78 -94 -113.5 -145.5t-52.5 -91.5h344v-78h-426z" />
<glyph unicode="&#xbe;" horiz-adv-x="1440" d="M47 834v10h80q0 -70 30 -103.5t91 -33.5q63 0 97 46t34 132t-49 127t-152 41h-8v65h12q92 0 137.5 37.5t45.5 114.5q0 65 -30 104t-79 39q-47 0 -75 -28.5t-36 -83.5l-79 -1q6 86 55.5 133.5t132.5 47.5q91 0 145 -58.5t54 -156.5q0 -66 -28 -110t-85 -69 q67 -22 100 -72.5t33 -129.5q0 -115 -60 -182.5t-161 -67.5q-99 0 -152 51t-53 148zM209 -29l903 1514h109l-904 -1514h-108zM926 186v41l250 596h129v-565h96v-72h-96v-200h-88v200h-291zM1016 258h201l8 508h-4q-17 -47 -30.5 -82.5t-25.5 -63.5z" />
<glyph unicode="&#xbf;" horiz-adv-x="702" d="M80 246q0 136 132 348q37 60 54 90q48 84 69 158.5t21 156.5q0 6 -1 20t-1 21h107q1 -11 1.5 -22.5t0.5 -34.5q0 -87 -20.5 -166t-73.5 -186q-17 -33 -51 -94q-103 -182 -103 -287q0 -77 36.5 -121.5t98.5 -44.5q64 0 103 48.5t39 129.5v6l114 -12q-2 -134 -72 -209.5 t-192 -75.5t-192 73.5t-70 201.5zM328 1298v183h161v-183h-161z" />
<glyph unicode="&#xc0;" horiz-adv-x="901" d="M27 0l321 1481h209l324 -1481h-160l-86 436h-373l-86 -436h-149zM295 575h309l-155 775zM201 1970h178l209 -350h-106z" />
<glyph unicode="&#xc1;" horiz-adv-x="901" d="M27 0l321 1481h209l324 -1481h-160l-86 436h-373l-86 -436h-149zM295 575h309l-155 775zM314 1620l209 350h178l-281 -350h-106z" />
<glyph unicode="&#xc2;" horiz-adv-x="901" d="M27 0l321 1481h209l324 -1481h-160l-86 436h-373l-86 -436h-149zM295 575h309l-155 775zM164 1620l197 350h178l197 -350h-107l-178 244l-180 -244h-107z" />
<glyph unicode="&#xc3;" horiz-adv-x="901" d="M27 0l321 1481h209l324 -1481h-160l-86 436h-373l-86 -436h-149zM295 575h309l-155 775zM160 1679q22 92 72.5 139.5t126.5 47.5q14 0 29 -2.5t30 -7.5l78 -27q17 -5 32.5 -7.5t28.5 -2.5q36 0 60.5 17.5t36.5 51.5h88q-24 -93 -75.5 -142.5t-123.5 -49.5q-13 0 -27 2.5 t-38 9.5l-80 27q-12 4 -25.5 6t-27.5 2q-35 0 -58.5 -15.5t-38.5 -48.5h-88z" />
<glyph unicode="&#xc4;" horiz-adv-x="901" d="M27 0l321 1481h209l324 -1481h-160l-86 436h-373l-86 -436h-149zM295 575h309l-155 775zM211 1686v186h160v-186h-160zM531 1686v186h160v-186h-160z" />
<glyph unicode="&#xc5;" horiz-adv-x="901" d="M27 0l321 1481q-67 38 -103 97t-36 130q0 104 71.5 176t176.5 72q104 0 176 -72t72 -176q0 -76 -39.5 -136.5t-108.5 -90.5l324 -1481h-160l-86 436h-373l-86 -436h-149zM295 575h309l-155 838zM315 1708q0 -60 42 -101.5t102 -41.5q59 0 100 41.5t41 101.5t-40.5 100.5 t-100.5 40.5q-61 0 -102.5 -40.5t-41.5 -100.5z" />
<glyph unicode="&#xc6;" horiz-adv-x="1386" d="M-10 0l583 1481h758v-135h-514v-512h377v-136h-377v-561h533v-137h-684v426h-361l-168 -426h-147zM360 565h306l6 781h-25z" />
<glyph unicode="&#xc7;" horiz-adv-x="950" d="M84 721q0 405 103.5 597.5t320.5 192.5q170 0 268 -123.5t98 -340.5h-147q-8 162 -64.5 246.5t-156.5 84.5q-140 0 -202 -150.5t-62 -492.5q0 -335 68 -482t220 -147q104 0 163 92.5t59 256.5v30h137v-32q0 -231 -101 -356.5t-286 -125.5q-208 0 -313 188.5t-105 561.5z M239 -336q80 -18 141.5 -27.5t104.5 -9.5q60 0 90.5 21.5t30.5 62.5q0 52 -33 75.5t-104 23.5q-21 0 -31 -0.5t-21 -1.5v192h72v-106h23q111 0 168 -45t57 -132q0 -89 -62.5 -135.5t-183.5 -46.5q-48 0 -109.5 10t-142.5 31v88z" />
<glyph unicode="&#xc8;" horiz-adv-x="854" d="M133 0v1481h666v-138h-514v-509h377v-136h-377v-561h532v-137h-684zM217 1970h178l209 -350h-106z" />
<glyph unicode="&#xc9;" horiz-adv-x="854" d="M133 0v1481h666v-138h-514v-509h377v-136h-377v-561h532v-137h-684zM330 1620l209 350h178l-281 -350h-106z" />
<glyph unicode="&#xca;" horiz-adv-x="854" d="M133 0v1481h666v-138h-514v-509h377v-136h-377v-561h532v-137h-684zM180 1620l197 350h178l197 -350h-107l-178 244l-180 -244h-107z" />
<glyph unicode="&#xcb;" horiz-adv-x="854" d="M133 0v1481h666v-138h-514v-509h377v-136h-377v-561h532v-137h-684zM227 1686v186h160v-186h-160zM547 1686v186h160v-186h-160z" />
<glyph unicode="&#xcc;" horiz-adv-x="428" d="M137 0v1481h152v-1481h-152zM-35 1970h178l209 -350h-106z" />
<glyph unicode="&#xcd;" horiz-adv-x="428" d="M137 0v1481h152v-1481h-152zM78 1620l209 350h178l-281 -350h-106z" />
<glyph unicode="&#xce;" horiz-adv-x="428" d="M137 0v1481h152v-1481h-152zM-72 1620l197 350h178l197 -350h-107l-178 244l-180 -244h-107z" />
<glyph unicode="&#xcf;" horiz-adv-x="428" d="M137 0v1481h152v-1481h-152zM-25 1686v186h160v-186h-160zM295 1686v186h160v-186h-160z" />
<glyph unicode="&#xd0;" horiz-adv-x="1004" d="M10 723v111h142v647h274q257 0 373 -174t116 -564q0 -393 -115.5 -568t-373.5 -175h-274v723h-142zM303 140q35 -3 52.5 -4t29.5 -1q211 0 296 133.5t85 479.5q0 340 -84.5 473t-294.5 133q-13 0 -31 -1t-53 -4v-515h207v-111h-207v-583z" />
<glyph unicode="&#xd1;" horiz-adv-x="1038" d="M135 0v1481h221l306 -840q35 -100 65 -191.5t55 -177.5q-6 66 -9 136t-3 188v885h133v-1481h-149l-373 1024q-31 83 -59 168.5t-54 173.5v-1366h-133zM229 1679q22 92 72.5 139.5t126.5 47.5q14 0 29 -2.5t30 -7.5l78 -27q17 -5 32.5 -7.5t28.5 -2.5q36 0 60.5 17.5 t36.5 51.5h88q-24 -93 -75.5 -142.5t-123.5 -49.5q-13 0 -27 2.5t-38 9.5l-80 27q-12 4 -25.5 6t-27.5 2q-35 0 -58.5 -15.5t-38.5 -48.5h-88z" />
<glyph unicode="&#xd2;" horiz-adv-x="985" d="M84 741q0 380 103 574t305 194q201 0 305 -194.5t104 -573.5t-104 -574.5t-305 -195.5q-202 0 -305 195.5t-103 574.5zM244 776q0 -353 58.5 -509t189.5 -156q128 0 187.5 150t59.5 480q0 328 -59.5 479.5t-187.5 151.5t-188 -144t-60 -452zM244 1970h178l209 -350h-106z " />
<glyph unicode="&#xd3;" horiz-adv-x="985" d="M84 741q0 380 103 574t305 194q201 0 305 -194.5t104 -573.5t-104 -574.5t-305 -195.5q-202 0 -305 195.5t-103 574.5zM244 776q0 -353 58.5 -509t189.5 -156q128 0 187.5 150t59.5 480q0 328 -59.5 479.5t-187.5 151.5t-188 -144t-60 -452zM357 1620l209 350h178 l-281 -350h-106z" />
<glyph unicode="&#xd4;" horiz-adv-x="985" d="M84 741q0 380 103 574t305 194q201 0 305 -194.5t104 -573.5t-104 -574.5t-305 -195.5q-202 0 -305 195.5t-103 574.5zM244 776q0 -353 58.5 -509t189.5 -156q128 0 187.5 150t59.5 480q0 328 -59.5 479.5t-187.5 151.5t-188 -144t-60 -452zM207 1620l197 350h178 l197 -350h-107l-178 244l-180 -244h-107z" />
<glyph unicode="&#xd5;" horiz-adv-x="985" d="M84 741q0 380 103 574t305 194q201 0 305 -194.5t104 -573.5t-104 -574.5t-305 -195.5q-202 0 -305 195.5t-103 574.5zM244 776q0 -353 58.5 -509t189.5 -156q128 0 187.5 150t59.5 480q0 328 -59.5 479.5t-187.5 151.5t-188 -144t-60 -452zM203 1679q22 92 72.5 139.5 t126.5 47.5q14 0 29 -2.5t30 -7.5l78 -27q17 -5 32.5 -7.5t28.5 -2.5q36 0 60.5 17.5t36.5 51.5h88q-24 -93 -75.5 -142.5t-123.5 -49.5q-13 0 -27 2.5t-38 9.5l-80 27q-12 4 -25.5 6t-27.5 2q-35 0 -58.5 -15.5t-38.5 -48.5h-88z" />
<glyph unicode="&#xd6;" horiz-adv-x="985" d="M84 741q0 380 103 574t305 194q201 0 305 -194.5t104 -573.5t-104 -574.5t-305 -195.5q-202 0 -305 195.5t-103 574.5zM244 776q0 -353 58.5 -509t189.5 -156q128 0 187.5 150t59.5 480q0 328 -59.5 479.5t-187.5 151.5t-188 -144t-60 -452zM254 1686v186h160v-186h-160z M574 1686v186h160v-186h-160z" />
<glyph unicode="&#xd7;" horiz-adv-x="1706" d="M305 129l481 481l-481 482l70 69l481 -481l481 481l70 -69l-481 -482l481 -481l-70 -70l-481 482l-481 -482z" />
<glyph unicode="&#xd8;" horiz-adv-x="985" d="M84 733q0 386 102.5 581t305.5 195q74 0 128 -21t97 -67l67 164l97 -43l-93 -219q59 -95 86 -240.5t27 -375.5q0 -360 -107 -548t-311 -188q-60 0 -109 18.5t-89 55.5l-90 -229l-97 47l113 268q-65 95 -96 241.5t-31 360.5zM244 741q0 -120 10 -224t31 -195l372 946 q-26 48 -71 76t-94 28q-132 0 -190 -147.5t-58 -483.5zM344 195q25 -41 63.5 -62.5t84.5 -21.5q129 0 189 153.5t60 487.5q0 90 -8 181t-24 185z" />
<glyph unicode="&#xd9;" horiz-adv-x="1004" d="M129 518v963h152v-949q0 -268 47.5 -347t173.5 -79q123 0 171 80.5t48 345.5v949h151v-963q0 -195 -17.5 -281t-59.5 -141q-48 -60 -124 -92.5t-169 -32.5q-95 0 -171.5 32.5t-123.5 92.5q-43 53 -60.5 136.5t-17.5 285.5zM252 1970h178l209 -350h-106z" />
<glyph unicode="&#xda;" horiz-adv-x="1004" d="M129 518v963h152v-949q0 -268 47.5 -347t173.5 -79q123 0 171 80.5t48 345.5v949h151v-963q0 -195 -17.5 -281t-59.5 -141q-48 -60 -124 -92.5t-169 -32.5q-95 0 -171.5 32.5t-123.5 92.5q-43 53 -60.5 136.5t-17.5 285.5zM365 1620l209 350h178l-281 -350h-106z" />
<glyph unicode="&#xdb;" horiz-adv-x="1004" d="M129 518v963h152v-949q0 -268 47.5 -347t173.5 -79q123 0 171 80.5t48 345.5v949h151v-963q0 -195 -17.5 -281t-59.5 -141q-48 -60 -124 -92.5t-169 -32.5q-95 0 -171.5 32.5t-123.5 92.5q-43 53 -60.5 136.5t-17.5 285.5zM215 1620l197 350h178l197 -350h-107l-178 244 l-180 -244h-107z" />
<glyph unicode="&#xdc;" horiz-adv-x="1004" d="M129 518v963h152v-949q0 -268 47.5 -347t173.5 -79q123 0 171 80.5t48 345.5v949h151v-963q0 -195 -17.5 -281t-59.5 -141q-48 -60 -124 -92.5t-169 -32.5q-95 0 -171.5 32.5t-123.5 92.5q-43 53 -60.5 136.5t-17.5 285.5zM262 1686v186h160v-186h-160zM582 1686v186h160 v-186h-160z" />
<glyph unicode="&#xdd;" horiz-adv-x="772" d="M-23 1481h158l254 -674l248 674h156l-328 -844v-637h-156v637zM250 1620l209 350h178l-281 -350h-106z" />
<glyph unicode="&#xde;" horiz-adv-x="915" d="M133 0v1481h152v-295h149q200 0 312 -106.5t112 -297.5q0 -202 -118.5 -301.5t-358.5 -99.5h-96v-381h-152zM285 508h129q149 0 225 67.5t76 200.5q0 137 -75.5 205t-225.5 68h-129v-541z" />
<glyph unicode="&#xdf;" horiz-adv-x="864" d="M121 0v1079q0 209 72 306.5t227 97.5q151 0 232 -93t81 -266q0 -113 -37 -184t-118 -113q105 -45 153.5 -142t48.5 -263q0 -213 -71.5 -326.5t-206.5 -113.5q-30 0 -59 4.5t-58 14.5v136q24 -16 51 -24.5t56 -8.5q75 0 111 83t36 259q0 150 -55.5 228.5t-163.5 81.5v128 q93 5 134.5 63.5t41.5 187.5q0 112 -44 170.5t-130 58.5q-81 0 -119.5 -67.5t-38.5 -206.5v-1090h-143z" />
<glyph unicode="&#xe0;" horiz-adv-x="840" d="M72 258q0 156 128.5 271.5t372.5 177.5v24v43q0 101 -37 145t-122 44q-73 0 -113 -46.5t-59 -154.5l-138 22q25 147 103.5 224t204.5 77q160 0 232.5 -83t72.5 -271v-485q0 -64 4.5 -125t13.5 -121h-145l-17 96q-52 -52 -114 -79t-129 -27q-120 0 -189 72t-69 196z M213 256q0 -62 40 -102.5t101 -40.5q49 0 105.5 29.5t113.5 84.5v344q-171 -38 -265.5 -121t-94.5 -194zM182 1548h178l209 -350h-106z" />
<glyph unicode="&#xe1;" horiz-adv-x="840" d="M72 258q0 156 128.5 271.5t372.5 177.5v24v43q0 101 -37 145t-122 44q-73 0 -113 -46.5t-59 -154.5l-138 22q25 147 103.5 224t204.5 77q160 0 232.5 -83t72.5 -271v-485q0 -64 4.5 -125t13.5 -121h-145l-17 96q-52 -52 -114 -79t-129 -27q-120 0 -189 72t-69 196z M213 256q0 -62 40 -102.5t101 -40.5q49 0 105.5 29.5t113.5 84.5v344q-171 -38 -265.5 -121t-94.5 -194zM295 1198l209 350h178l-281 -350h-106z" />
<glyph unicode="&#xe2;" horiz-adv-x="840" d="M72 258q0 156 128.5 271.5t372.5 177.5v24v43q0 101 -37 145t-122 44q-73 0 -113 -46.5t-59 -154.5l-138 22q25 147 103.5 224t204.5 77q160 0 232.5 -83t72.5 -271v-485q0 -64 4.5 -125t13.5 -121h-145l-17 96q-52 -52 -114 -79t-129 -27q-120 0 -189 72t-69 196z M213 256q0 -62 40 -102.5t101 -40.5q49 0 105.5 29.5t113.5 84.5v344q-171 -38 -265.5 -121t-94.5 -194zM145 1198l197 350h178l197 -350h-107l-178 244l-180 -244h-107z" />
<glyph unicode="&#xe3;" horiz-adv-x="840" d="M72 258q0 156 128.5 271.5t372.5 177.5v24v43q0 101 -37 145t-122 44q-73 0 -113 -46.5t-59 -154.5l-138 22q25 147 103.5 224t204.5 77q160 0 232.5 -83t72.5 -271v-485q0 -64 4.5 -125t13.5 -121h-145l-17 96q-52 -52 -114 -79t-129 -27q-120 0 -189 72t-69 196z M213 256q0 -62 40 -102.5t101 -40.5q49 0 105.5 29.5t113.5 84.5v344q-171 -38 -265.5 -121t-94.5 -194zM141 1257q22 92 72.5 139.5t126.5 47.5q14 0 29 -2.5t30 -7.5l78 -27q17 -5 32.5 -7.5t28.5 -2.5q36 0 60.5 17.5t36.5 51.5h88q-24 -93 -75.5 -142.5t-123.5 -49.5 q-13 0 -27 2.5t-38 9.5l-80 27q-12 4 -25.5 6t-27.5 2q-35 0 -58.5 -15.5t-38.5 -48.5h-88z" />
<glyph unicode="&#xe4;" horiz-adv-x="840" d="M72 258q0 156 128.5 271.5t372.5 177.5v24v43q0 101 -37 145t-122 44q-73 0 -113 -46.5t-59 -154.5l-138 22q25 147 103.5 224t204.5 77q160 0 232.5 -83t72.5 -271v-485q0 -64 4.5 -125t13.5 -121h-145l-17 96q-52 -52 -114 -79t-129 -27q-120 0 -189 72t-69 196z M213 256q0 -62 40 -102.5t101 -40.5q49 0 105.5 29.5t113.5 84.5v344q-171 -38 -265.5 -121t-94.5 -194zM192 1264v186h160v-186h-160zM512 1264v186h160v-186h-160z" />
<glyph unicode="&#xe5;" horiz-adv-x="840" d="M72 258q0 156 128.5 271.5t372.5 177.5v24v43q0 101 -37 145t-122 44q-73 0 -113 -46.5t-59 -154.5l-138 22q25 147 103.5 224t204.5 77q160 0 232.5 -83t72.5 -271v-485q0 -64 4.5 -125t13.5 -121h-145l-17 96q-52 -52 -114 -79t-129 -27q-120 0 -189 72t-69 196z M188 1403q0 104 72 176t176 72q105 0 176.5 -72t71.5 -176q0 -105 -71.5 -176.5t-176.5 -71.5q-104 0 -176 71.5t-72 176.5zM213 256q0 -62 40 -102.5t101 -40.5q49 0 105.5 29.5t113.5 84.5v344q-171 -38 -265.5 -121t-94.5 -194zM293 1401q0 -60 41.5 -100.5t101.5 -40.5 t101 40.5t41 100.5t-41 101.5t-101 41.5q-61 0 -102 -41.5t-41 -101.5z" />
<glyph unicode="&#xe6;" horiz-adv-x="1276" d="M72 250q0 157 128 272t373 178q2 13 2 26v38q0 102 -36.5 149.5t-116.5 47.5q-78 0 -119.5 -47t-60.5 -156l-138 22q27 154 107.5 230.5t216.5 76.5q78 0 137.5 -27.5t100.5 -82.5q45 55 103 82.5t126 27.5q152 0 228.5 -122.5t76.5 -368.5q0 -34 -0.5 -51.5t-1.5 -32.5 h-485q0 -217 43 -314.5t139 -97.5q76 0 117.5 63t46.5 185h133q-9 -176 -87 -273.5t-210 -97.5q-84 0 -146.5 35.5t-111.5 110.5q-80 -73 -159.5 -109.5t-158.5 -36.5q-111 0 -179 75.5t-68 197.5zM213 248q0 -64 39.5 -105t101.5 -41q50 0 107.5 30t111.5 85v348 q-171 -39 -265.5 -122.5t-94.5 -194.5zM715 633h341q2 11 2.5 23.5t0.5 35.5q0 137 -42 205t-126 68q-85 0 -129 -83.5t-47 -248.5z" />
<glyph unicode="&#xe7;" horiz-adv-x="764" d="M76 530q0 286 79 421.5t244 135.5q127 0 205 -88.5t84 -240.5h-131q-5 104 -45 155.5t-115 51.5q-94 0 -136 -101t-42 -334q0 -235 41.5 -332.5t138.5 -97.5q76 0 118 63.5t47 184.5h130q-1 -172 -81 -273.5t-214 -101.5q-165 0 -244 136t-79 421zM133 -336 q80 -18 141.5 -27.5t104.5 -9.5q60 0 90.5 21.5t30.5 62.5q0 52 -33 75.5t-104 23.5q-21 0 -31 -0.5t-21 -1.5v192h72v-106h23q111 0 168 -45t57 -132q0 -89 -62.5 -135.5t-183.5 -46.5q-48 0 -109.5 10t-142.5 31v88z" />
<glyph unicode="&#xe8;" horiz-adv-x="780" d="M76 530q0 286 79 421.5t244 135.5q153 0 230.5 -123t77.5 -368q0 -34 -0.5 -51t-2.5 -33h-484q1 -223 43 -317.5t136 -94.5q76 0 118 63.5t47 184.5h134q-9 -178 -88 -276.5t-211 -98.5q-165 0 -244 136t-79 421zM221 631h340v41q0 156 -38.5 224.5t-125.5 68.5 q-84 0 -127 -81t-49 -253zM156 1548h178l209 -350h-106z" />
<glyph unicode="&#xe9;" horiz-adv-x="780" d="M76 530q0 286 79 421.5t244 135.5q153 0 230.5 -123t77.5 -368q0 -34 -0.5 -51t-2.5 -33h-484q1 -223 43 -317.5t136 -94.5q76 0 118 63.5t47 184.5h134q-9 -178 -88 -276.5t-211 -98.5q-165 0 -244 136t-79 421zM221 631h340v41q0 156 -38.5 224.5t-125.5 68.5 q-84 0 -127 -81t-49 -253zM269 1198l209 350h178l-281 -350h-106z" />
<glyph unicode="&#xea;" horiz-adv-x="780" d="M76 530q0 286 79 421.5t244 135.5q153 0 230.5 -123t77.5 -368q0 -34 -0.5 -51t-2.5 -33h-484q1 -223 43 -317.5t136 -94.5q76 0 118 63.5t47 184.5h134q-9 -178 -88 -276.5t-211 -98.5q-165 0 -244 136t-79 421zM221 631h340v41q0 156 -38.5 224.5t-125.5 68.5 q-84 0 -127 -81t-49 -253zM119 1198l197 350h178l197 -350h-107l-178 244l-180 -244h-107z" />
<glyph unicode="&#xeb;" horiz-adv-x="780" d="M76 530q0 286 79 421.5t244 135.5q153 0 230.5 -123t77.5 -368q0 -34 -0.5 -51t-2.5 -33h-484q1 -223 43 -317.5t136 -94.5q76 0 118 63.5t47 184.5h134q-9 -178 -88 -276.5t-211 -98.5q-165 0 -244 136t-79 421zM221 631h340v41q0 156 -38.5 224.5t-125.5 68.5 q-84 0 -127 -81t-49 -253zM166 1264v186h160v-186h-160zM486 1264v186h160v-186h-160z" />
<glyph unicode="&#xec;" horiz-adv-x="389" d="M123 0v1063h143v-1063h-143zM-55 1548h178l209 -350h-106z" />
<glyph unicode="&#xed;" horiz-adv-x="389" d="M123 0v1063h143v-1063h-143zM58 1198l209 350h178l-281 -350h-106z" />
<glyph unicode="&#xee;" horiz-adv-x="389" d="M123 0v1063h143v-1063h-143zM-92 1198l197 350h178l197 -350h-107l-178 244l-180 -244h-107z" />
<glyph unicode="&#xef;" horiz-adv-x="389" d="M123 0v1063h143v-1063h-143zM-45 1264v186h160v-186h-160zM275 1264v186h160v-186h-160z" />
<glyph unicode="&#xf0;" horiz-adv-x="782" d="M104 500q0 260 70.5 393t208.5 133q15 0 33.5 -3t44.5 -9q-16 48 -31 80.5t-33 56.5l-227 -90l-37 92l209 82q-25 39 -69.5 76t-114.5 78l35 92q65 -22 131.5 -72.5t134.5 -130.5l225 86l39 -88l-211 -80q84 -155 126 -329.5t42 -366.5q0 -265 -70 -396t-213 -131 q-150 0 -221.5 128.5t-71.5 398.5zM238 500q0 -224 36 -316t121 -92q80 0 117 98t37 310q0 211 -37 309t-117 98q-85 0 -121 -92t-36 -315z" />
<glyph unicode="&#xf1;" horiz-adv-x="846" d="M127 0v1063h141v-111q64 72 124 105t128 33q104 0 154.5 -68t50.5 -207v-815h-141v768q0 112 -26.5 154.5t-92.5 42.5q-54 0 -105.5 -36.5t-91.5 -103.5v-825h-141zM133 1257q22 92 72.5 139.5t126.5 47.5q14 0 29 -2.5t30 -7.5l78 -27q17 -5 32.5 -7.5t28.5 -2.5 q36 0 60.5 17.5t36.5 51.5h88q-24 -93 -75.5 -142.5t-123.5 -49.5q-13 0 -27 2.5t-38 9.5l-80 27q-12 4 -25.5 6t-27.5 2q-35 0 -58.5 -15.5t-38.5 -48.5h-88z" />
<glyph unicode="&#xf2;" horiz-adv-x="782" d="M72 530q0 286 79 421.5t244 135.5q159 0 237.5 -138t78.5 -419q0 -280 -78.5 -418.5t-237.5 -138.5q-165 0 -244 136t-79 421zM217 530q0 -234 41 -332t135 -98q89 0 129.5 102t40.5 328q0 227 -40.5 330t-129.5 103q-94 0 -135 -99t-41 -334zM141 1548h178l209 -350 h-106z" />
<glyph unicode="&#xf3;" horiz-adv-x="782" d="M72 530q0 286 79 421.5t244 135.5q159 0 237.5 -138t78.5 -419q0 -280 -78.5 -418.5t-237.5 -138.5q-165 0 -244 136t-79 421zM217 530q0 -234 41 -332t135 -98q89 0 129.5 102t40.5 328q0 227 -40.5 330t-129.5 103q-94 0 -135 -99t-41 -334zM254 1198l209 350h178 l-281 -350h-106z" />
<glyph unicode="&#xf4;" horiz-adv-x="782" d="M72 530q0 286 79 421.5t244 135.5q159 0 237.5 -138t78.5 -419q0 -280 -78.5 -418.5t-237.5 -138.5q-165 0 -244 136t-79 421zM217 530q0 -234 41 -332t135 -98q89 0 129.5 102t40.5 328q0 227 -40.5 330t-129.5 103q-94 0 -135 -99t-41 -334zM104 1198l197 350h178 l197 -350h-107l-178 244l-180 -244h-107z" />
<glyph unicode="&#xf5;" horiz-adv-x="782" d="M72 530q0 286 79 421.5t244 135.5q159 0 237.5 -138t78.5 -419q0 -280 -78.5 -418.5t-237.5 -138.5q-165 0 -244 136t-79 421zM217 530q0 -234 41 -332t135 -98q89 0 129.5 102t40.5 328q0 227 -40.5 330t-129.5 103q-94 0 -135 -99t-41 -334zM100 1257q22 92 72.5 139.5 t126.5 47.5q14 0 29 -2.5t30 -7.5l78 -27q17 -5 32.5 -7.5t28.5 -2.5q36 0 60.5 17.5t36.5 51.5h88q-24 -93 -75.5 -142.5t-123.5 -49.5q-13 0 -27 2.5t-38 9.5l-80 27q-12 4 -25.5 6t-27.5 2q-35 0 -58.5 -15.5t-38.5 -48.5h-88z" />
<glyph unicode="&#xf6;" horiz-adv-x="782" d="M72 530q0 286 79 421.5t244 135.5q159 0 237.5 -138t78.5 -419q0 -280 -78.5 -418.5t-237.5 -138.5q-165 0 -244 136t-79 421zM217 530q0 -234 41 -332t135 -98q89 0 129.5 102t40.5 328q0 227 -40.5 330t-129.5 103q-94 0 -135 -99t-41 -334zM151 1264v186h160v-186 h-160zM471 1264v186h160v-186h-160z" />
<glyph unicode="&#xf7;" horiz-adv-x="1706" d="M254 561v98h1198v-98h-1198zM748 258q0 44 31 75.5t75 31.5q45 0 76 -31t31 -76q0 -44 -31 -75t-76 -31t-75.5 31t-30.5 75zM748 963q0 44 31.5 76t74.5 32q44 0 75.5 -32t31.5 -76q0 -45 -31 -76t-76 -31t-75.5 30.5t-30.5 76.5z" />
<glyph unicode="&#xf8;" horiz-adv-x="782" d="M59 -199l109 283q-50 60 -73 166.5t-23 279.5q0 286 79 421.5t244 135.5q42 0 75 -9t62 -29l74 190l90 -43l-86 -217q51 -59 76 -169t25 -280q0 -285 -80 -421t-248 -136q-44 0 -78.5 9.5t-58.5 27.5l-94 -250zM213 530q0 -78 5.5 -143.5t17.5 -122.5l249 660 q-16 20 -38 29.5t-52 9.5q-97 0 -139.5 -99t-42.5 -334zM295 141q14 -21 37.5 -31t62.5 -10q92 0 133 101.5t41 328.5q0 89 -6 155.5t-18 119.5z" />
<glyph unicode="&#xf9;" horiz-adv-x="846" d="M123 246v817h141v-768q0 -112 26.5 -154.5t92.5 -42.5q54 0 105 36.5t92 103.5v825h141v-1063h-141v111q-64 -72 -124 -105t-128 -33q-104 0 -154.5 67t-50.5 206zM174 1548h178l209 -350h-106z" />
<glyph unicode="&#xfa;" horiz-adv-x="846" d="M123 246v817h141v-768q0 -112 26.5 -154.5t92.5 -42.5q54 0 105 36.5t92 103.5v825h141v-1063h-141v111q-64 -72 -124 -105t-128 -33q-104 0 -154.5 67t-50.5 206zM287 1198l209 350h178l-281 -350h-106z" />
<glyph unicode="&#xfb;" horiz-adv-x="846" d="M123 246v817h141v-768q0 -112 26.5 -154.5t92.5 -42.5q54 0 105 36.5t92 103.5v825h141v-1063h-141v111q-64 -72 -124 -105t-128 -33q-104 0 -154.5 67t-50.5 206zM137 1198l197 350h178l197 -350h-107l-178 244l-180 -244h-107z" />
<glyph unicode="&#xfc;" horiz-adv-x="846" d="M123 246v817h141v-768q0 -112 26.5 -154.5t92.5 -42.5q54 0 105 36.5t92 103.5v825h141v-1063h-141v111q-64 -72 -124 -105t-128 -33q-104 0 -154.5 67t-50.5 206zM184 1264v186h160v-186h-160zM504 1264v186h160v-186h-160z" />
<glyph unicode="&#xfd;" horiz-adv-x="711" d="M18 1063h148l184 -801l180 801h142l-248 -1059q-47 -198 -128.5 -280t-225.5 -82q-19 0 -28.5 0.5t-16.5 1.5v131q6 -1 13.5 -1.5t22.5 -0.5q97 0 150.5 56.5t77.5 182.5zM219 1198l209 350h178l-281 -350h-106z" />
<glyph unicode="&#xfe;" horiz-adv-x="840" d="M127 -356v1837h143v-514q51 61 102.5 90.5t106.5 29.5q139 0 214 -143t75 -412q0 -270 -75 -413.5t-216 -143.5q-54 0 -106 31t-101 92v-454h-143zM270 240q44 -68 88.5 -102t92.5 -34q89 0 129.5 103.5t40.5 337.5q0 221 -41 322.5t-129 101.5q-48 0 -92.5 -33.5 t-88.5 -101.5v-594z" />
<glyph unicode="&#xff;" horiz-adv-x="711" d="M18 1063h148l184 -801l180 801h142l-248 -1059q-47 -198 -128.5 -280t-225.5 -82q-19 0 -28.5 0.5t-16.5 1.5v131q6 -1 13.5 -1.5t22.5 -0.5q97 0 150.5 56.5t77.5 182.5zM116 1264v186h160v-186h-160zM436 1264v186h160v-186h-160z" />
<glyph unicode="&#x131;" horiz-adv-x="389" d="M123 0v1063h143v-1063h-143z" />
<glyph unicode="&#x152;" horiz-adv-x="1466" d="M84 741q0 381 104.5 575.5t309.5 194.5q91 0 153 -41.5t105 -132.5v144h657v-135h-520v-512h383v-136h-383v-561h537v-137h-674v141q-43 -85 -109.5 -127.5t-154.5 -42.5q-202 0 -305 195.5t-103 574.5zM244 776q0 -353 58.5 -509t189.5 -156q128 0 187.5 150t59.5 480 q0 328 -59.5 479.5t-187.5 151.5t-188 -144t-60 -452z" />
<glyph unicode="&#x153;" horiz-adv-x="1280" d="M76 530q0 286 79 421.5t244 135.5q82 0 140.5 -36t105.5 -115q45 77 106.5 114t145.5 37q153 0 230 -123t77 -368q0 -34 -0.5 -51.5t-1.5 -32.5h-485q0 -10 -1 -29t-1 -28q0 -177 45.5 -266t136.5 -89q76 0 118.5 63.5t47.5 184.5h133q-9 -181 -89 -278t-220 -97 q-83 0 -145.5 39t-94.5 111q-43 -74 -106 -112t-142 -38q-165 0 -244 136t-79 421zM219 530q0 -235 41.5 -332.5t138.5 -97.5q92 0 133 101.5t41 328.5q0 229 -41 331t-133 102q-97 0 -138.5 -98.5t-41.5 -334.5zM719 633h342v41q0 154 -39 222.5t-127 68.5t-132 -83.5 t-44 -248.5z" />
<glyph unicode="&#x178;" horiz-adv-x="772" d="M-23 1481h158l254 -674l248 674h156l-328 -844v-637h-156v637zM147 1686v186h160v-186h-160zM467 1686v186h160v-186h-160z" />
<glyph unicode="&#x2c6;" horiz-adv-x="1024" d="M225 1198l197 350h178l197 -350h-107l-178 244l-180 -244h-107z" />
<glyph unicode="&#x2dc;" horiz-adv-x="1024" d="M221 1257q22 92 72.5 139.5t126.5 47.5q14 0 29 -2.5t30 -7.5l78 -27q17 -5 32.5 -7.5t28.5 -2.5q36 0 60.5 17.5t36.5 51.5h88q-24 -93 -75.5 -142.5t-123.5 -49.5q-13 0 -27 2.5t-38 9.5l-80 27q-12 4 -25.5 6t-27.5 2q-35 0 -58.5 -15.5t-38.5 -48.5h-88z" />
<glyph unicode="&#x2000;" horiz-adv-x="985" />
<glyph unicode="&#x2001;" horiz-adv-x="1970" />
<glyph unicode="&#x2002;" horiz-adv-x="985" />
<glyph unicode="&#x2003;" horiz-adv-x="1970" />
<glyph unicode="&#x2004;" horiz-adv-x="656" />
<glyph unicode="&#x2005;" horiz-adv-x="492" />
<glyph unicode="&#x2006;" horiz-adv-x="328" />
<glyph unicode="&#x2007;" horiz-adv-x="328" />
<glyph unicode="&#x2008;" horiz-adv-x="246" />
<glyph unicode="&#x2009;" horiz-adv-x="394" />
<glyph unicode="&#x200a;" horiz-adv-x="109" />
<glyph unicode="&#x2010;" horiz-adv-x="674" d="M92 467v127h490v-127h-490z" />
<glyph unicode="&#x2011;" horiz-adv-x="674" d="M92 467v127h490v-127h-490z" />
<glyph unicode="&#x2012;" horiz-adv-x="674" d="M92 467v127h490v-127h-490z" />
<glyph unicode="&#x2013;" horiz-adv-x="1024" d="M0 483v95h1024v-95h-1024z" />
<glyph unicode="&#x2014;" horiz-adv-x="2048" d="M0 483v95h2048v-95h-2048z" />
<glyph unicode="&#x2018;" horiz-adv-x="436" d="M141 1030v195l121 284h60l-93 -297h74v-182h-162z" />
<glyph unicode="&#x2019;" horiz-adv-x="436" d="M129 1030l92 297h-74v182h162v-192l-121 -287h-59z" />
<glyph unicode="&#x201a;" horiz-adv-x="436" d="M127 -293l90 293h-72v186h162v-194l-121 -285h-59z" />
<glyph unicode="&#x201c;" horiz-adv-x="748" d="M141 1030v195l121 284h60l-93 -297h74v-182h-162zM451 1030v195l122 284h60l-92 -297h71v-182h-161z" />
<glyph unicode="&#x201d;" horiz-adv-x="748" d="M129 1030l92 297h-74v182h162v-192l-121 -287h-59zM440 1030l90 297h-71v182h162v-192l-121 -287h-60z" />
<glyph unicode="&#x201e;" horiz-adv-x="748" d="M121 -295l90 295h-72v184h162v-194l-121 -285h-59zM430 -295l92 295h-73v184h161v-194l-121 -285h-59z" />
<glyph unicode="&#x2022;" horiz-adv-x="1208" d="M307 762q0 123 87 209t210 86q122 0 208.5 -86.5t86.5 -208.5t-87.5 -209.5t-209.5 -87.5q-123 0 -209 87t-86 210z" />
<glyph unicode="&#x2026;" horiz-adv-x="2048" d="M260 0v182h162v-182h-162zM942 0v182h162v-182h-162zM1626 0v182h162v-182h-162z" />
<glyph unicode="&#x202f;" horiz-adv-x="394" />
<glyph unicode="&#x2039;" horiz-adv-x="541" d="M76 530l243 312h123l-237 -312l237 -311h-125z" />
<glyph unicode="&#x203a;" horiz-adv-x="541" d="M76 219l237 311l-235 312h123l241 -312l-241 -311h-125z" />
<glyph unicode="&#x205f;" horiz-adv-x="492" />
<glyph unicode="&#x2122;" horiz-adv-x="1706" d="M264 1397v57h430v-57h-172v-473h-82v473h-176zM821 924v530h117l166 -422l156 422h116v-530h-71v467l-177 -467h-49l-186 467v-467h-72z" />
<glyph unicode="&#xe000;" horiz-adv-x="1065" d="M0 1065h1065v-1065h-1065v1065z" />
<glyph unicode="&#xfb01;" horiz-adv-x="872" d="M606 0v1063h143v-1063h-143zM606 1313v168h143v-168h-143zM-4 938v125h160v125q0 181 46 247t163 66q35 0 61 -2.5t49 -7.5v-115q-25 6 -39 8t-24 2q-67 0 -91 -32t-24 -148v-143h170v-125h-170v-938h-141v938h-160z" />
<glyph unicode="&#xfb02;" horiz-adv-x="872" d="M606 0v1481h143v-1481h-143zM-4 938v125h160v125q0 181 46 247t163 66q35 0 61 -2.5t49 -7.5v-115q-25 6 -39 8t-24 2q-67 0 -91 -32t-24 -148v-143h170v-125h-170v-938h-141v938h-160z" />
<glyph unicode="&#xfb03;" horiz-adv-x="1355" d="M1089 0v1063h143v-1063h-143zM1089 1313v168h143v-168h-143zM479 938v125h160v125q0 181 46 247t163 66q35 0 61 -2.5t49 -7.5v-115q-25 6 -39 8t-24 2q-67 0 -91 -32t-24 -148v-143h170v-125h-170v-938h-141v938h-160zM-4 938v125h160v125q0 181 46 247t163 66 q35 0 61 -2.5t49 -7.5v-115q-25 6 -39 8t-24 2q-67 0 -91 -32t-24 -148v-143h170v-125h-170v-938h-141v938h-160z" />
<glyph unicode="&#xfb04;" horiz-adv-x="1355" d="M1089 0v1481h143v-1481h-143zM479 938v125h160v125q0 181 46 247t163 66q35 0 61 -2.5t49 -7.5v-115q-25 6 -39 8t-24 2q-67 0 -91 -32t-24 -148v-143h170v-125h-170v-938h-141v938h-160zM-4 938v125h160v125q0 181 46 247t163 66q35 0 61 -2.5t49 -7.5v-115q-25 6 -39 8 t-24 2q-67 0 -91 -32t-24 -148v-143h170v-125h-170v-938h-141v938h-160z" />
</font>
</defs>
</svg>
